<svg width="100" height="100" viewBox="0 0 100 100" fill="none" xmlns="http://www.w3.org/2000/svg">
<path class="animation-target-0" d="M63.675 7.39458C64.4352 8.33755 64.8227 9.61021 65.5945 12.1524L82.5133 67.7274C76.1587 64.4293 69.338 62.1201 62.2867 60.8797L51.2727 23.6563C51.1857 23.3587 51.0046 23.0974 50.7564 22.9116C50.5083 22.7258 50.2065 22.6256 49.8965 22.6259C49.5865 22.6263 49.285 22.7272 49.0373 22.9136C48.7895 23.1 48.609 23.3617 48.5227 23.6594L37.6406 60.861C30.5586 62.0962 23.7075 64.4089 17.3258 67.7188L34.3242 12.1407C35.1024 9.60161 35.4899 8.3313 36.2492 7.38833C36.9205 6.5583 37.7926 5.91344 38.7828 5.51489C39.9024 5.06567 41.2328 5.06567 43.8883 5.06567H56.0313C58.6891 5.06567 60.0196 5.06567 61.143 5.51802C62.1339 5.91649 63.0052 6.56262 63.675 7.39458Z" fill="#150426"/>
<path class="animation-target-1" d="M65.6984 70.3703C62.9093 72.757 57.3422 74.3836 50.9304 74.3836C43.0633 74.3836 36.4656 71.9328 34.7164 68.6367C34.0914 70.5258 33.9508 72.6867 33.9508 74.0695C33.9508 74.0695 33.539 80.8469 38.2539 85.5617C38.2539 84.9798 38.3685 84.4036 38.5912 83.8661C38.8139 83.3285 39.1403 82.84 39.5518 82.4286C39.9633 82.0172 40.4518 81.6909 40.9894 81.4683C41.527 81.2457 42.1032 81.1311 42.6851 81.1312C46.8804 81.1312 46.8781 84.7898 46.875 87.7625V88.025C46.875 92.5352 49.6304 96.3992 53.5492 98.0289C52.9452 96.7881 52.6321 95.426 52.6336 94.0461C52.6336 89.743 55.157 88.1437 58.0929 86.282C60.4281 84.8023 63.0218 83.157 64.807 79.8586C65.7705 78.0813 66.274 76.0912 66.2718 74.0695C66.273 72.8142 66.0795 71.5663 65.6984 70.3703Z" fill="#FF5D01"/>
<path d="M65.6984 70.3703C62.9093 72.757 57.3422 74.3836 50.9304 74.3836C43.0633 74.3836 36.4656 71.9328 34.7164 68.6367C34.0914 70.5258 33.9508 72.6867 33.9508 74.0695C33.9508 74.0695 33.539 80.8469 38.2539 85.5617C38.2539 84.9798 38.3685 84.4036 38.5912 83.8661C38.8139 83.3285 39.1403 82.84 39.5518 82.4286C39.9633 82.0172 40.4518 81.6909 40.9894 81.4683C41.527 81.2457 42.1032 81.1311 42.6851 81.1312C46.8804 81.1312 46.8781 84.7898 46.875 87.7625V88.025C46.875 92.5352 49.6304 96.3992 53.5492 98.0289C52.9452 96.7881 52.6321 95.426 52.6336 94.0461C52.6336 89.743 55.157 88.1437 58.0929 86.282C60.4281 84.8023 63.0218 83.157 64.807 79.8586C65.7705 78.0813 66.274 76.0912 66.2718 74.0695C66.273 72.8142 66.0795 71.5663 65.6984 70.3703Z" fill="url(#paint1_linear_34_64)"/>
<defs>
<linearGradient id="paint1_linear_34_64" x1="78.2562" y1="50.9727" x2="61.7442" y2="85.5398" gradientUnits="userSpaceOnUse">
<stop stop-color="#FF1639"/>
<stop offset="1" stop-color="#FF1639" stop-opacity="0"/>
</linearGradient>
</defs>
</svg>
