<svg width="100" height="100" viewBox="0 0 100 100" fill="none" xmlns="http://www.w3.org/2000/svg">
<path d="M41.5015 42.9181V86.7594L12.7329 72.2455V28.3194L41.5003 42.9188L41.5015 42.9181ZM84.7778 31.232L42.8683 40.8941L15.0406 26.7741L56.9391 17.128L84.7772 31.2326L84.7778 31.232ZM87.1028 33.1877V77.1335L43.9225 87.2018V43.1372L87.1028 33.1877Z" fill="white"/>
<path d="M42.8763 89.9231C42.9132 89.9231 42.9489 89.9151 42.9815 89.9071L43.0388 89.8911C42.9815 89.9071 42.9329 89.9114 42.8763 89.9194V89.9231ZM89.512 31.4917C89.5038 31.4071 89.4846 31.3239 89.4548 31.2443C89.4388 31.2074 89.4265 31.1711 89.4062 31.1391C89.3314 30.9722 89.2156 30.827 89.0695 30.7169C89.0129 30.6726 88.9563 30.64 88.8991 30.6037C88.8831 30.5951 88.8788 30.5871 88.8628 30.5834L57.6455 14.7717C57.3923 14.6439 57.1026 14.6081 56.8259 14.6702L11.2443 25.1631C11.2443 25.1631 11.2246 25.1711 11.208 25.1797C11.1485 25.1893 11.091 25.2084 11.0375 25.2363C10.9889 25.2566 10.9366 25.2849 10.888 25.3132C10.8228 25.3502 10.7582 25.3982 10.7009 25.4548C10.6714 25.4764 10.6454 25.5026 10.624 25.5323C10.5754 25.5815 10.5311 25.6375 10.4948 25.6948C10.4738 25.7317 10.4498 25.7717 10.4295 25.8166C10.3686 25.9343 10.33 26.0622 10.3157 26.1938C10.3077 26.2431 10.3077 26.2954 10.3077 26.3434V72.9834C10.3077 73.4462 10.5631 73.8597 10.9686 74.0665L42.1218 89.7809C42.1785 89.8172 42.2431 89.8375 42.3083 89.8578C42.3649 89.8782 42.4302 89.9022 42.4948 89.9065C42.568 89.9225 42.6363 89.9268 42.7102 89.9268C42.7668 89.9268 42.8234 89.9268 42.872 89.9108C42.9264 89.9028 42.9806 89.8934 43.0345 89.8825L88.5871 79.2585C88.8526 79.1967 89.0894 79.0468 89.2588 78.8333C89.4282 78.6197 89.5203 78.3551 89.52 78.0825V31.6418C89.52 31.5926 89.512 31.5403 89.504 31.4917H89.512ZM56.9397 17.1286L84.7822 31.232L42.872 40.8942L15.0412 26.7742L56.9397 17.1286ZM12.7335 28.32L41.5009 42.9188V86.7594L12.7335 72.2455V28.3194V28.32ZM87.1022 77.1335L43.9225 87.2018V43.1372L87.1022 33.1834V77.1335Z" fill="black"/>
<path d="M83.9465 39.3126V72.0068C83.9465 72.3348 83.7274 72.6191 83.4111 72.696L69.7046 76.1237C69.5595 76.1613 69.4061 76.1518 69.2668 76.0963C69.1275 76.0409 69.0094 75.9425 68.9299 75.8154L66.1151 71.3902L63.1372 77.3729C63.0443 77.5637 62.8658 77.7015 62.6591 77.7502L48.3483 81.0277C48.2968 81.0429 48.2432 81.0498 48.1895 81.048C48.0285 81.0476 47.8725 80.9917 47.7477 80.8899C47.6634 80.8237 47.5952 80.7393 47.5481 80.6431C47.501 80.5469 47.4763 80.4413 47.4757 80.3342V47.2831C47.4757 46.9465 47.7034 46.6628 48.0314 46.5939L83.0745 38.6148C83.2892 38.5699 83.5083 38.6228 83.6788 38.7563C83.8412 38.8905 83.9428 39.0935 83.9428 39.3126H83.9465Z" fill="black"/>
<path d="M61.6689 53.0191V66.6234L56.5661 67.8283V54.1951L61.6689 53.0191ZM74.848 49.9846V63.5169L70.1791 64.616V51.0585L74.848 49.9846Z" fill="#0AFFC8"/>
<path d="M33.5015 49.7612V69.808L31.0437 70.5058V51.5335C31.0437 51.08 30.7883 50.6658 30.3865 50.4511L18.7532 44.5046L21.0166 43.336L33.4978 49.7612H33.5022H33.5015Z" fill="#00AF91"/>
<path d="M35.2665 47.9483L21.5723 40.8941C21.4003 40.8062 21.2098 40.7603 21.0166 40.7603C20.8234 40.7603 20.6329 40.8062 20.4609 40.8941L15.6092 43.4012C15.5809 43.4172 15.5526 43.4295 15.5243 43.4498C15.5044 43.4576 15.4853 43.4671 15.4671 43.4781L15.4025 43.5231C15.3532 43.5514 15.3009 43.5957 15.2609 43.6363C15.224 43.6732 15.1871 43.7095 15.1551 43.7501C15.1342 43.771 15.1174 43.7956 15.1058 43.8228C15.0783 43.8524 15.0564 43.8868 15.0412 43.9243C15.0209 43.9612 14.9969 44.0012 14.9846 44.0381C14.968 44.0665 14.9643 44.0948 14.9477 44.1231L14.928 44.2086C14.928 44.2086 14.9114 44.2449 14.9114 44.2652C14.892 44.3462 14.8825 44.4293 14.8831 44.5126V65.0941C14.8831 65.5489 15.1385 65.9625 15.544 66.1772L29.2671 73.1791L29.2831 73.1871C29.4535 73.272 29.648 73.3169 29.8308 73.3169C29.944 73.3169 30.0498 73.3003 30.1594 73.272L35.0474 71.8972C35.3002 71.8235 35.5223 71.6697 35.6803 71.459C35.8383 71.2483 35.9237 70.992 35.9237 70.7286V49.0234C35.9237 48.5692 35.6757 48.1557 35.2665 47.9483ZM28.6178 70.1329L17.3046 64.3557V46.496L28.6178 52.2806V70.1329ZM33.4978 69.8123L31.0394 70.5095V51.5385C31.0394 51.0843 30.784 50.6708 30.3822 50.4554L18.7489 44.5089L21.0123 43.3409L33.4935 49.7662V69.8129L33.4978 69.8123Z" fill="black"/>
<path d="M28.6215 52.2769V70.1323L17.3089 64.352V46.4923L28.6215 52.2769Z" fill="#0AFFC8"/>
<path d="M32.6258 15.7046V18.3329L36.1508 17.5422L32.6258 15.7046ZM55.6942 27.3538C55.6086 27.3748 55.5157 27.3828 55.4221 27.3828C55.2357 27.3828 55.0529 27.3378 54.8868 27.2529L47.4431 23.5532L35.1243 26.3969C34.8445 26.4583 34.5521 26.4211 34.2966 26.2917L27.8431 22.9569L28.0055 27.3545L35.0068 30.9729L47.3175 28.1372C47.4082 28.118 47.5006 28.1085 47.5932 28.1089C47.7803 28.1089 47.9625 28.1532 48.1286 28.2382L55.5723 31.9378L65.2388 29.7071V25.1557L55.6862 27.3588L55.6942 27.3538ZM57.1138 19.416C57.1453 19.1666 57.2535 18.933 57.4235 18.7478C57.5935 18.5626 57.8169 18.4348 58.0628 18.3822L67.1249 16.4142L62.2289 13.8874L50.64 16.4671C50.366 16.5321 50.0778 16.496 49.8283 16.3655L42.1335 12.4923L34.9009 14.16L40.2228 16.9218C40.4424 17.0363 40.6215 17.2154 40.7361 17.435C40.8506 17.6545 40.8949 17.904 40.8631 18.1495C40.8313 18.3951 40.7249 18.625 40.5582 18.8082C40.3915 18.9913 40.1726 19.1188 39.9311 19.1735L31.7372 21.0111L30.0862 21.3803L35.0148 23.9311L47.3255 21.096C47.4191 21.0757 47.5126 21.0591 47.6018 21.0591C47.7883 21.0591 47.9711 21.1083 48.1372 21.1895L55.5803 24.8923L62.8978 23.2049L57.7748 20.6449C57.55 20.5337 57.3654 20.3551 57.247 20.1341C57.1285 19.913 57.082 19.6605 57.1138 19.4117V19.416ZM61.9366 20.0203L66.6258 22.3569L69.4689 21.7723V18.3815L61.9409 20.0203H61.9366Z" fill="#00AF9B"/>
<path d="M57.7711 20.6492L62.8942 23.2092L55.5766 24.896L48.1329 21.1926C47.9661 21.1109 47.7833 21.0668 47.5975 21.0634C47.5046 21.0634 47.4111 21.0794 47.3218 21.0991L35.0105 23.9348L30.0825 21.3834L31.7335 21.0142L39.9274 19.1766C40.1688 19.1219 40.3875 18.9943 40.5541 18.8113C40.7207 18.6283 40.8271 18.3985 40.859 18.1531C40.8909 17.9076 40.8467 17.6583 40.7323 17.4388C40.618 17.2193 40.4391 17.0401 40.2197 16.9255L34.8972 14.1631L42.1298 12.4954L49.8246 16.3699C50.072 16.4991 50.36 16.5317 50.6357 16.4708L62.2246 13.8911L67.1206 16.4185L58.0591 18.3859C57.8125 18.4371 57.5882 18.5645 57.4179 18.7499C57.2475 18.9354 57.1397 19.1697 57.1095 19.4197C57.0777 19.6685 57.1243 19.9211 57.2429 20.1422C57.3615 20.3633 57.5461 20.5418 57.7711 20.6529V20.6492Z" fill="#0AFFC8"/>
<path d="M25.3569 20.7754C25.3483 20.8234 25.3483 20.8763 25.3483 20.9249C25.3483 20.8517 25.3569 20.7908 25.3686 20.7262C25.3602 20.7414 25.3548 20.7581 25.3526 20.7754H25.3569Z" fill="black"/>
<path d="M71.2302 15.8018L62.9428 11.5261C62.6909 11.395 62.4006 11.3577 62.1237 11.4209L50.5262 14.0086L42.8314 10.1311C42.5785 10.003 42.2888 9.96706 42.0123 10.0295L31.1409 12.528C30.9065 12.5849 30.6937 12.709 30.5286 12.8849C30.5206 12.8935 30.5126 12.9015 30.5083 12.9138C30.4701 12.9533 30.4361 12.9966 30.4068 13.0431C30.3776 13.0899 30.3493 13.1373 30.3218 13.1852C30.3015 13.2344 30.2849 13.2788 30.2652 13.3274C30.2477 13.37 30.2381 13.4155 30.2369 13.4615C30.2203 13.4898 30.2203 13.5261 30.2166 13.5544V13.5914C30.2 13.6277 30.2 13.6683 30.2 13.7126V18.8726L26.2985 19.7489C26.1535 19.7792 26.0157 19.8369 25.8923 19.9188C25.8431 19.9557 25.7988 19.992 25.7582 20.0246C25.6933 20.0788 25.6362 20.1415 25.5883 20.2111C25.568 20.248 25.5391 20.2843 25.5231 20.3243C25.5071 20.3329 25.5028 20.3409 25.5028 20.3532C25.4745 20.3975 25.4542 20.4461 25.4382 20.4948C25.4311 20.5008 25.4257 20.5084 25.4221 20.517C25.4186 20.5255 25.4171 20.5348 25.4178 20.544C25.3975 20.6006 25.3809 20.6572 25.3729 20.7224C25.3579 20.7876 25.3511 20.8544 25.3526 20.9212V20.9698L25.6166 28.1372C25.6237 28.3526 25.6883 28.5621 25.8039 28.744C25.9196 28.9258 26.0818 29.0733 26.2738 29.1711L34.2972 33.3249C34.5526 33.4591 34.8529 33.4954 35.128 33.4308L47.448 30.5877L54.8911 34.2861C55.0535 34.3723 55.24 34.4166 55.4265 34.4166C55.52 34.4166 55.6129 34.408 55.6985 34.3877L66.7317 31.8443C67.2794 31.7151 67.6726 31.232 67.6726 30.6603V24.6123L70.9218 23.9428C71.1951 23.8857 71.4404 23.7365 71.6168 23.5202C71.7933 23.3039 71.8901 23.0336 71.8911 22.7544V16.8769C71.8911 16.4264 71.6357 16.0092 71.2338 15.8018H71.2302ZM69.4615 21.7729L66.6185 22.3569L61.9292 20.0203L69.4572 18.3815V21.7723H69.4615V21.7729ZM32.6258 15.7046L36.1508 17.5421L32.6258 18.3329V15.7046ZM31.7335 21.0104L39.9274 19.1729C40.1688 19.1181 40.3875 18.9906 40.5541 18.8076C40.7207 18.6246 40.8271 18.3948 40.859 18.1494C40.8909 17.9039 40.8467 17.6546 40.7323 17.4351C40.618 17.2156 40.4391 17.0364 40.2197 16.9218L34.8972 14.1588L42.1298 12.4923L49.8246 16.3661C50.072 16.496 50.36 16.5286 50.6357 16.4677L62.2246 13.888L67.1212 16.4148L58.0591 18.3821C57.8125 18.4335 57.5883 18.5609 57.418 18.7465C57.2477 18.9321 57.1401 19.1665 57.1102 19.4166C57.0783 19.6654 57.1248 19.9179 57.2433 20.139C57.3618 20.36 57.5463 20.5386 57.7711 20.6498L62.8942 23.2098L55.5766 24.8966L48.1329 21.1932C47.9661 21.1115 47.7833 21.0674 47.5975 21.064C47.5046 21.064 47.4111 21.0794 47.3218 21.0997L35.0111 23.9354L30.0825 21.384L31.7335 21.0148V21.0104ZM65.2474 29.7028L55.5803 31.9335L48.1372 28.2344C47.9717 28.149 47.7881 28.1047 47.6018 28.1052C47.5083 28.1052 47.4154 28.1126 47.3262 28.1329L35.0148 30.9686L28.0135 27.3501L27.8517 22.9532L34.3052 26.2874C34.5526 26.4172 34.8529 26.4578 35.1323 26.3932L47.4517 23.5495L54.8954 27.2486C55.0572 27.3341 55.2437 27.3784 55.4308 27.3784C55.5237 27.3784 55.6172 27.3704 55.7022 27.3501L65.2548 25.1471V29.6991L65.2474 29.7028Z" fill="black"/>
</svg>
