<svg width="100" height="100" viewBox="0 0 100 100" fill="none" xmlns="http://www.w3.org/2000/svg">
<circle cx="50" cy="50" r="40" fill="#1A1A1A"/>
<path d="M57.7137 34.0159C57.538 34.0159 57.3956 34.1583 57.3956 34.334V66.5248C57.3956 66.7005 57.538 66.8429 57.7137 66.8429H65.2684C65.34 66.8429 65.4061 66.8193 65.4593 66.7793H73.875C74.0076 66.7793 74.1263 66.6971 74.1728 66.5729L76.7971 59.5749C76.8751 59.367 76.7213 59.1451 76.4992 59.1451C76.4992 59.1451 70.0421 59.1451 65.9046 59.1451C65.5865 59.1451 65.5865 58.827 65.5865 58.827V34.334C65.5865 34.1583 65.4441 34.0159 65.2684 34.0159H57.7137Z" fill="white"/>
<path fill-rule="evenodd" clip-rule="evenodd" d="M27.0179 34.0159H40.2187C48.3345 34.2399 54.8509 41.5241 54.8509 50.4771C54.8509 59.4302 48.3345 66.7144 40.2187 66.9384H27.0179V34.0159ZM35.6064 43.2406H39.8079C43.5644 43.3433 46.5805 46.6863 46.5805 50.7952C46.5805 54.9041 43.5644 58.2471 39.8079 58.3499H35.6064V43.2406Z" fill="white"/>
</svg>
