<svg
  width="100"
  height="100"
  viewBox="0 0 100 100"
  fill="none"
  xmlns="http://www.w3.org/2000/svg"
  >
  <g clipPath="url(#clip0_29_37)">
    <path
      class="animation-target-0"
      d="M86.4694 40.3042C85.9455 36.521 83.8498 33.2362 80.0685 30.2686L77.8817 28.7961L76.4238 30.9935C74.5559 33.8252 73.622 37.767 73.9181 41.5502C74.0548 42.8641 74.4876 45.2654 75.8316 47.3269C74.4876 48.0744 71.8225 49.0712 68.2689 49.0032H0.387381L0.250707 49.7961C-0.387106 53.5793 -0.387106 65.4272 7.24387 74.5113C13.0525 81.4207 21.7313 84.932 33.0753 84.932C57.6767 84.932 75.8544 73.5372 84.3965 52.7864C87.745 52.8544 94.966 52.8091 98.679 45.6731C98.7701 45.5146 98.9979 45.0841 99.6357 43.7249L100 42.9773L97.9272 41.5728C95.6493 40.1003 90.4785 39.534 86.4694 40.3042ZM54.6698 15H44.3509V24.4466H54.6698V15ZM54.6698 26.3495H44.3509V35.7961H54.6698V26.3495ZM42.4603 26.3495H32.1414V35.7961H42.4603V26.3495ZM30.2735 26.3495H19.9546V35.7961H30.2735V26.3495ZM18.0639 37.699H7.74501V47.1456H18.0639V37.699ZM30.2735 37.699H19.9546V47.1456H30.2735V37.699ZM42.4603 37.699H32.1414V47.1456H42.4603V37.699ZM54.6698 37.699H44.3509V47.1456H54.6698V37.699ZM66.8794 37.699H56.5605V47.1456H66.8794V37.699Z"
      fill="#1D63ED"
    />
  </g>
  <defs>
    <clipPath id="clip0_29_37">
      <rect width="100" height="100" fill="#FFF" />
    </clipPath>
  </defs>
</svg>
