<svg
  width="100"
  height="100"
  viewBox="0 0 100 100"
  fill="none"
  xmlns="http://www.w3.org/2000/svg"
>
  <path
    class="animation-target-0"
    d="M47.4583 38.5795C48.25 37.4211 49.1125 37.2747 49.8125 37.2747C50.5125 37.2747 51.675 37.4211 52.4667 38.5795C58.675 47.0686 68.925 63.984 76.4875 76.4667C81.4208 84.6004 85.2083 90.8522 85.9875 91.6467C88.9042 94.6326 92.9042 92.7716 95.2292 89.3844C97.5167 86.0515 98.15 83.7097 98.15 81.2131C98.15 79.5111 64.9917 18.122 61.6542 13.0118C58.4458 8.0982 57.3958 6.8562 51.9042 6.8562H47.7875C42.3083 6.8562 41.5167 8.0982 38.3042 13.0118C34.9667 18.122 1.80417 79.5111 1.80417 81.2089C1.80417 83.7096 2.44167 86.0515 4.73334 89.3844C7.05834 92.7716 11.0583 94.6326 13.975 91.6426C14.75 90.848 18.5375 84.6004 23.4708 76.4626C31.0333 63.984 41.25 47.0686 47.4625 38.5753L47.4583 38.5795Z"
    fill="#000000"
  />
</svg>
