<svg width="100" height="100" viewBox="0 0 100 100" fill="none" xmlns="http://www.w3.org/2000/svg">
<path d="M28.0263 41.1071C29.0328 41.1071 29.8488 40.2018 29.8488 39.085C29.8488 37.9682 29.0328 37.0628 28.0263 37.0628C27.0197 37.0628 26.2037 37.9682 26.2037 39.085C26.2037 40.2018 27.0197 41.1071 28.0263 41.1071Z" fill="white"/>
<path d="M68.0566 76.574C67.7642 77.3462 67.0015 77.8969 66.1065 77.8969C64.959 77.8969 64.0288 76.9915 64.0288 75.8748C64.0288 74.758 64.959 73.8526 66.1065 73.8526C67.0015 73.8526 67.7642 74.4033 68.0566 75.1755V76.574Z" fill="white"/>
<path d="M43.7426 58.8368C43.4502 59.609 42.6874 60.1597 41.7924 60.1597C40.645 60.1597 39.7148 59.2544 39.7148 58.1376C39.7148 57.0208 40.645 56.1155 41.7924 56.1155C42.6874 56.1155 43.4502 56.6662 43.7426 57.4384V58.8368Z" fill="white"/>
<path d="M57.8301 60.194C58.8367 60.194 59.6527 59.2886 59.6527 58.1718C59.6527 57.055 58.8367 56.1497 57.8301 56.1497C56.8235 56.1497 56.0075 57.055 56.0075 58.1718C56.0075 59.2886 56.8235 60.194 57.8301 60.194Z" fill="white"/>
<path fill-rule="evenodd" clip-rule="evenodd" d="M34.593 30.4462H24.397C23.3956 30.4462 22.5548 31.1978 22.4462 32.1902L22.1012 35.3414H23.1767V37.2291H21.8945L21.3076 42.5911V43.073H21.2548L20.009 54.4528H21.3713V55.5893C23.4995 52.8081 25.765 54.1952 26.3848 55.5358C28.8679 52.3562 31.5218 54.8046 31.5218 56.203V62.0567H29.059V57.4769C29.059 55.975 27.8655 55.6589 26.5496 57.6032V62.0567H24.0868V57.4769C24.0868 55.8969 22.766 55.6293 21.3713 57.9249V62.0572H19.1766L18.0663 72.1987L20.2381 72.1899L21.6485 75.4004L22.658 72.9698L22.301 72.1899L24.4989 72.1997L25.826 75.3955L27.2315 72.1997L29.449 72.1899L25.9952 80.2614L23.6466 75.1298L21.3468 80.2614L18.0168 72.6509L17.762 74.9786C17.8285 75.2629 17.8635 75.5599 17.8635 75.8668C17.8635 76.4751 17.7259 77.0507 17.4785 77.5681L17.0118 81.8317C16.8851 82.9891 17.7946 84 18.9626 84H81.1995C82.3694 84 83.2794 82.9862 83.1499 81.8273L82.9364 79.9174C82.6787 79.9619 82.4131 79.9851 82.1416 79.9851C79.7329 79.9851 77.7802 78.1577 77.7802 75.8668C77.7802 73.6105 79.6745 71.8856 82.033 71.8341L80.9402 62.0567H80.0149V57.4769C80.0149 55.8271 78.1878 55.272 77.0885 58.2221V62.0719H74.6404V54.5017H77.0885V55.5187C78.0797 54.2887 79.1312 53.9136 80.0397 53.999L78.8223 43.1061C77.0614 42.6601 75.7541 41.0061 75.7541 39.0075C75.7541 37.3557 76.6472 35.982 77.9514 35.3138L77.6018 32.1858C77.4911 31.1954 76.6512 30.4462 75.6515 30.4462H66.1222V27.4411H66.1173C65.9053 18.877 58.9298 12 50.3557 12C41.7816 12 34.806 18.877 34.5941 27.4411C34.5941 27.4411 34.588 29.4703 34.593 30.4462ZM37.5796 30.4462H63.1367L63.1302 27.9446C63.1302 20.8555 57.4108 15.1086 50.3557 15.1086C43.3005 15.1086 37.5812 20.8555 37.5812 27.9446V28.1047C37.5812 28.8827 37.5812 29.6657 37.5796 30.4462ZM38.1522 73.9401C38.1522 72.4945 35.2655 70.1503 32.763 73.2559V72.2388H30.3149V79.809H32.763V75.9592C33.8623 73.0092 35.6894 73.5643 35.6894 75.214V79.7938H38.1522V73.9401ZM71.9961 35.3659H74.4442V42.9703H71.9961V35.3659ZM60.0549 36.5024C62.1831 33.7212 64.4486 35.1083 65.0684 36.4489C67.5515 33.2693 70.2054 35.7177 70.2054 37.1161V42.9698H67.7426V38.39C67.7426 36.8881 66.5491 36.5721 65.2332 38.5164V42.9698H62.7704V38.39C62.7704 36.8101 61.4496 36.5424 60.0549 38.838V42.9703H57.6068V35.3659H60.0549V36.5024ZM73.2888 33.9868C74.057 33.9868 74.6797 33.4165 74.6797 32.7129C74.6797 32.0093 74.057 31.439 73.2888 31.439C72.5207 31.439 71.898 32.0093 71.898 32.7129C71.898 33.4165 72.5207 33.9868 73.2888 33.9868ZM47.2847 36.4318C49.7873 33.3263 52.6739 35.6705 52.6739 37.1161V42.9698H50.2112V38.39C50.2112 36.7403 48.384 36.1852 47.2847 39.1352V42.985H44.8366V35.4148H47.2847V36.4318ZM32.3852 39.0428C32.3852 41.3337 30.4325 43.161 28.0238 43.161C25.6151 43.161 23.6624 41.3337 23.6624 39.0428C23.6624 36.7519 25.6151 35.0089 28.0238 35.0089C30.4325 35.0089 32.3852 36.7519 32.3852 39.0428ZM32.3411 35.3757L34.7597 35.3659L36.1702 38.5764L37.1797 36.1458L36.8227 35.3659L39.0206 35.3757L40.3476 38.5715L41.7532 35.3757L43.9707 35.3659L40.5169 43.4373L38.1682 38.3057L35.8685 43.4373L32.3411 35.3757ZM57.6265 72.1899H60.0746V79.7943H57.6265V72.1899ZM68.0566 66.0917H70.5047V79.7943H68.0566V79.0109C67.3489 79.6584 66.422 80.0486 65.4074 80.0486C63.1856 80.0486 61.3845 78.1774 61.3845 75.8316C61.3845 73.4857 63.1856 71.7009 65.4074 71.7009C66.422 71.7009 67.3489 72.0731 68.0566 72.701V66.0917ZM72.9773 68.8987H75.4254V72.1655H77.2946V74.0531H75.4254V79.897H72.9773V74.0531H71.7508V72.1655H72.9773V68.8987ZM45.6854 73.3264C47.8136 70.5452 50.079 71.9324 50.6989 73.273C53.182 70.0933 55.8358 72.5417 55.8358 73.9401V79.7938H53.3731V75.214C53.3731 73.7122 52.1796 73.3961 50.8636 75.3404V79.7938H48.4008V75.214C48.4008 73.6341 47.08 73.3664 45.6854 75.6621V79.7943H43.2373V72.1899H45.6854V73.3264ZM58.9192 70.8108C59.6873 70.8108 60.31 70.2405 60.31 69.5369C60.31 68.8333 59.6873 68.263 58.9192 68.263C58.1511 68.263 57.5283 68.8333 57.5283 69.5369C57.5283 70.2405 58.1511 70.8108 58.9192 70.8108ZM33.3124 54.4528H35.7605V62.0572H33.3124V54.4528ZM46.1906 48.3545H43.7426V54.9639C43.0349 54.336 42.108 53.9637 41.0933 53.9637C38.8716 53.9637 37.0704 55.7486 37.0704 58.0944C37.0704 60.4403 38.8716 62.3115 41.0933 62.3115C42.108 62.3115 43.0349 61.9212 43.7426 61.2738V62.0572H46.1906V48.3545ZM62.1891 58.1297C62.1891 60.4206 60.2364 62.2479 57.8277 62.2479C55.4189 62.2479 53.4663 60.4206 53.4663 58.1297C53.4663 55.8388 55.4189 54.0958 57.8277 54.0958C60.2364 54.0958 62.1891 55.8388 62.1891 58.1297ZM51.1113 51.1616H48.6632V54.4283H47.4367V56.316H48.6632V62.1599H51.1113V56.316H52.9805V54.4283H51.1113V51.1616ZM35.9961 51.7998C35.9961 52.5033 35.3734 53.0737 34.6052 53.0737C33.8371 53.0737 33.2144 52.5033 33.2144 51.7998C33.2144 51.0962 33.8371 50.5259 34.6052 50.5259C35.3734 50.5259 35.9961 51.0962 35.9961 51.7998ZM62.1448 54.4625L64.5635 54.4528L65.974 57.6633L66.9834 55.2327L66.6265 54.4528L68.8243 54.4625L70.1514 57.6584L71.557 54.4625L73.7745 54.4528L70.3207 62.5242L67.972 57.3926L65.6722 62.5242L62.1448 54.4625Z" fill="white"/>
<path d="M82.206 73.888C82.1854 73.8872 82.1648 73.8868 82.1441 73.8868C81.1375 73.8868 80.3215 74.7922 80.3215 75.909C80.3215 77.0258 81.1375 77.9311 82.1441 77.9311C82.3393 77.9311 82.5273 77.8971 82.7036 77.8341L82.2629 73.8911C82.2558 73.8906 82.2487 73.8901 82.2416 73.8897C82.2297 73.889 82.2178 73.8884 82.206 73.888Z" fill="white"/>
</svg>
