<svg width="100" height="100" viewBox="0 0 100 100" fill="none" xmlns="http://www.w3.org/2000/svg">
<path d="M12.2125 37.9354C12.7303 37.3776 11.1994 39.7905 11.1122 46.6607C11.1048 47.2882 11.0401 56.783 17.3282 65.4411C23.3001 73.6635 34.8856 81.48 49.8317 81.4177C57.8251 81.3853 63.3838 79.697 68.4297 77.3165C71.1556 76.0316 73.3512 74.657 75.4149 72.909C79.836 69.1614 83.5128 65.3316 85.676 60.944C89.069 54.0613 89.1138 48.2892 89.0964 47.7638C88.8624 41.0804 87.9787 38.6251 88.5338 40.2088C88.9943 41.5211 89.43 44.4719 89.5495 46.9545C89.5769 47.5198 89.5868 48.1374 89.5893 48.3117C89.8407 70.5758 75.1908 88.3477 49.9164 88.4946C26.3123 88.0439 10.587 69.1987 10.4302 47.5298C10.4302 47.3978 10.4625 46.5536 10.4824 46.2299C10.7662 41.5062 11.6948 38.4931 12.2125 37.9354Z" fill="url(#paint0_linear_3_48)"/>
<path d="M19.0658 46.5164C19.0658 49.263 19.5388 51.9125 20.4175 54.4125L58.2483 20.4076C55.6569 19.795 52.9335 19.4663 50.1206 19.4663C48.5846 19.4663 47.0761 19.5659 45.5999 19.7527L19.2699 43.4187C19.138 44.4372 19.0658 45.4706 19.0658 46.5164ZM27.6043 65.125L70.7673 26.3291C68.97 24.9346 66.9885 23.7169 64.8576 22.7109L23.2703 60.09C24.4901 61.9153 25.9464 63.6035 27.6043 65.125ZM32.7175 68.9075C33.8825 69.5973 35.1048 70.2173 36.3743 70.7651L77.4139 33.6201C76.7368 32.5369 75.975 31.4985 75.1386 30.51L32.7175 68.9075ZM22.4663 34.2152L35.1296 22.8329C29.7203 25.4426 25.2917 29.4143 22.4663 34.2152Z" fill="url(#paint1_linear_3_48)"/>
<path d="M50.1206 81.5223C28.61 81.5223 11.1098 65.8172 11.1098 46.5139C11.1098 27.2105 28.61 11.5054 50.1206 11.5054C71.6311 11.5054 89.1338 27.2105 89.1338 46.5139C89.1338 65.8172 71.6311 81.5223 50.1206 81.5223ZM50.1206 14.9666C30.5169 14.9666 14.5675 29.1179 14.5675 46.5139C14.5675 63.9098 30.5169 78.0636 50.1206 78.0636C69.7243 78.0636 85.6761 63.9123 85.6761 46.5163C85.6761 29.1204 69.7243 14.9666 50.1206 14.9666Z" fill="url(#paint2_linear_3_48)"/>
<defs>
<linearGradient id="paint0_linear_3_48" x1="18.9269" y1="73.673" x2="85.7002" y2="35.1331" gradientUnits="userSpaceOnUse">
<stop stop-color="#9958EC"/>
<stop offset="0.074" stop-color="#8D6EE2"/>
<stop offset="0.2911" stop-color="#6DA9C8"/>
<stop offset="0.4513" stop-color="#59CEB7"/>
<stop offset="0.536" stop-color="#51DCB1"/>
</linearGradient>
<linearGradient id="paint1_linear_3_48" x1="57.2002" y1="58.7381" x2="36.0859" y2="22.1783" gradientUnits="userSpaceOnUse">
<stop offset="0.1139" stop-color="#51DCB1"/>
<stop offset="0.3581" stop-color="#5D9FD1"/>
<stop offset="0.585" stop-color="#9958EC"/>
<stop offset="0.6549" stop-color="#A24EEB"/>
<stop offset="0.773" stop-color="#BB34EA"/>
<stop offset="0.8914" stop-color="#D913E8"/>
</linearGradient>
<linearGradient id="paint2_linear_3_48" x1="68.1375" y1="77.7301" x2="32.0885" y2="15.3103" gradientUnits="userSpaceOnUse">
<stop stop-color="#51DCB1"/>
<stop offset="0.348" stop-color="#5D9FD1"/>
<stop offset="0.6111" stop-color="#9958EC"/>
<stop offset="0.6863" stop-color="#A24EEB"/>
<stop offset="0.8131" stop-color="#BB34EA"/>
<stop offset="0.9403" stop-color="#D913E8"/>
</linearGradient>
</defs>
</svg>
