<svg width="100" height="100" viewBox="0 0 100 100" fill="none" xmlns="http://www.w3.org/2000/svg">
<path fill-rule="evenodd" clip-rule="evenodd" d="M28.0525 19.8686C28.2187 18.531 29.4379 17.5813 30.7755 17.7476C42.5059 19.2052 48.8462 22.0153 52.6471 24.6569C54.4305 25.8964 55.5949 27.0608 56.3878 27.8538C56.4361 27.9021 56.483 27.949 56.5286 27.9945C56.7557 28.221 56.9163 28.3766 57.0354 28.4858C57.0364 28.4855 57.0373 28.4851 57.0382 28.4848C57.3208 28.3797 57.6883 28.2094 58.1879 27.954C58.4749 27.8073 58.8133 27.6275 59.1898 27.4275C60.0091 26.9923 61.0092 26.4611 62.0553 25.9646C65.2581 24.4446 69.5898 22.8815 75.2203 22.8815C76.5683 22.8815 77.661 23.9742 77.661 25.3221C77.661 26.6701 76.5683 27.7628 75.2203 27.7628C70.5458 27.7628 66.9453 29.0471 64.1481 30.3746C63.1918 30.8284 62.3978 31.251 61.6363 31.6563C61.2247 31.8753 60.8227 32.0893 60.4096 32.3005C59.8647 32.579 59.2946 32.8536 58.7398 33.0599C58.2019 33.26 57.5198 33.4577 56.7797 33.4577C55.7652 33.4577 54.9782 33.0453 54.4295 32.6528C53.9252 32.292 53.452 31.8201 53.0816 31.4507C53.04 31.4092 52.9981 31.3674 52.9558 31.3251C52.1849 30.5549 51.2813 29.6522 49.8613 28.6653C46.8826 26.5951 41.3585 23.9815 30.1736 22.5917C28.8359 22.4254 27.8863 21.2063 28.0525 19.8686Z" fill="#2980B8"/>
<path fill-rule="evenodd" clip-rule="evenodd" d="M50.3076 69.6276C51.6504 68.2508 52.8154 66.7108 53.7673 65.0416C54.7692 66.6952 56.0365 68.1871 57.5144 69.4656L57.3822 69.6975C56.8187 70.6851 56.0644 71.9998 55.2986 73.3127C54.8556 74.0722 54.412 74.8252 54.0013 75.5111C53.4973 74.7298 52.9427 73.855 52.3889 72.9732C51.6433 71.7861 50.9062 70.5977 50.3076 69.6276ZM33.322 31.695C42.9595 31.695 51.2316 37.3368 54.7861 45.385C58.2992 40.7111 64.0774 37.6611 70.6102 37.6611C81.3189 37.6611 90 45.8566 90 55.9662C90 66.0758 81.3189 74.2713 70.6102 74.2713C67.3533 74.2713 64.2839 73.5132 61.5893 72.1738C61.025 73.1626 60.2767 74.4665 59.515 75.7723C58.741 77.0991 57.9431 78.4452 57.3078 79.4669C56.9935 79.9724 56.6995 80.4301 56.4591 80.7741C56.3442 80.9385 56.2064 81.1279 56.0637 81.2953C55.9982 81.3722 55.8766 81.51 55.7153 81.6491C55.6358 81.7175 55.4897 81.8363 55.2886 81.9496C55.1267 82.0407 54.6843 82.2713 54.0678 82.2713C53.4337 82.2713 52.9824 82.0264 52.8395 81.9453C52.6469 81.836 52.5062 81.7226 52.431 81.6586C52.2768 81.5276 52.1577 81.3972 52.0916 81.3224C51.9476 81.1595 51.8034 80.9716 51.6782 80.8019C51.4175 80.4486 51.0928 79.9742 50.7406 79.4443C50.0299 78.3749 49.1308 76.9635 48.2552 75.5694C47.6439 74.5961 47.0393 73.6236 46.5111 72.7696C42.7598 75.2566 38.217 76.712 33.322 76.712C20.4416 76.712 10 66.6346 10 54.2035C10 41.7724 20.4416 31.695 33.322 31.695ZM56.6441 55.9662C56.6441 63.3799 62.8969 69.39 70.6102 69.39C78.3234 69.39 84.5763 63.3799 84.5763 55.9662C84.5763 48.5525 78.3234 42.5425 70.6102 42.5425C62.8969 42.5425 56.6441 48.5525 56.6441 55.9662ZM33.1864 71.2883C43.1463 71.2883 51.2203 63.6392 51.2203 54.2035C51.2203 44.7679 43.1463 37.1188 33.1864 37.1188C23.2266 37.1188 15.1525 44.7679 15.1525 54.2035C15.1525 63.6392 23.2266 71.2883 33.1864 71.2883Z" fill="#E77D04"/>
<path fill-rule="evenodd" clip-rule="evenodd" d="M42.1611 53.1188H34.4068C33.5081 53.1188 32.7797 53.8472 32.7797 54.7459C32.7797 55.6445 33.5081 56.373 34.4068 56.373H42.1169C41.2711 61.1493 37.0482 64.7798 31.9661 64.7798C26.2748 64.7798 21.661 60.2267 21.661 54.6103C21.661 48.9938 26.2748 44.4408 31.9661 44.4408C37.144 44.4408 41.43 48.2094 42.1611 53.1188Z" fill="#2980B8"/>
<path fill-rule="evenodd" clip-rule="evenodd" d="M66.4068 64.2374C62.962 64.2374 60.1695 61.5056 60.1695 58.1357C60.1695 54.7658 62.962 52.034 66.4068 52.034C69.3256 52.034 71.7761 53.9953 72.4564 56.6442H68.3051C67.4065 56.6442 66.678 57.3727 66.678 58.2713C66.678 59.1699 67.4065 59.8984 68.3051 59.8984H72.3798C71.6068 62.4089 69.225 64.2374 66.4068 64.2374Z" fill="#2980B8"/>
</svg>
