<svg width="594" height="594" viewBox="0 0 594 594" fill="none" xmlns="http://www.w3.org/2000/svg">
  <path class="pg-outline-2" d="M439.94 432.302C443.717 400.834 442.585 396.22 466.024 401.317L471.975 401.84C489.997 402.66 513.573 398.941 527.424 392.506C557.24 378.672 574.92 355.573 545.52 361.642C478.457 375.477 473.847 352.769 473.847 352.769C544.661 247.698 574.264 114.321 548.712 81.6729C479.019 -7.37909 358.381 34.7316 356.363 35.8249L355.72 35.9436C342.469 33.1942 327.64 31.5516 310.981 31.2822C280.633 30.7836 257.605 39.2382 240.137 52.4876C240.137 52.4876 24.9267 -36.1764 34.9387 163.992C37.068 206.573 95.9747 486.198 166.232 401.738C191.911 370.854 216.727 344.741 216.727 344.741C229.049 352.928 243.803 357.104 259.276 355.604L260.472 354.584C260.097 358.418 260.263 362.169 260.951 366.609C242.855 386.832 248.172 390.382 211.987 397.83C175.377 405.376 196.885 418.809 210.924 422.32C227.948 426.577 267.331 432.608 293.948 395.354L292.888 399.605C299.988 405.285 299.508 440.43 300.515 465.541C301.523 490.653 303.204 514.086 308.323 527.902C313.441 541.716 319.481 577.302 367.037 567.11C406.783 558.593 437.171 546.336 439.94 432.302Z" fill="black" stroke="black" stroke-width="49.8604"/>
  <path class="pg-background" d="M545.527 361.64C478.457 375.474 473.847 352.766 473.847 352.766C544.661 247.689 574.264 114.309 548.717 81.6649C479.024 -7.3818 358.381 34.7315 356.368 35.8249L355.72 35.9409C342.469 33.1902 327.64 31.5515 310.973 31.2795C280.625 30.7822 257.605 39.2355 240.137 52.4822C240.137 52.4822 24.9227 -36.1778 34.932 163.989C37.0613 206.573 95.9667 486.198 166.227 401.738C191.907 370.854 216.719 344.741 216.719 344.741C229.043 352.928 243.796 357.104 259.263 355.604L260.464 354.584C260.091 358.418 260.261 362.169 260.945 366.609C242.845 386.832 248.164 390.382 211.981 397.83C175.369 405.376 196.877 418.809 210.92 422.32C227.944 426.577 267.329 432.608 293.941 395.354L292.88 399.605C299.972 405.285 304.952 436.553 304.117 464.897C303.283 493.242 302.725 512.702 308.313 527.902C313.901 543.102 319.471 577.302 367.036 567.11C406.781 558.593 427.377 536.521 430.243 499.704C432.276 473.529 436.877 477.398 437.168 453.997L440.859 442.918C445.115 407.437 441.535 395.99 466.021 401.314L471.972 401.837C489.995 402.657 513.583 398.938 527.427 392.504C557.237 378.669 574.917 355.57 545.524 361.64H545.527Z" fill="#336791"/>
  <path class="pg-outline-1" d="M296.821 381.979C294.975 448 297.285 514.481 303.745 530.639C310.209 546.796 324.043 578.222 371.612 568.032C411.353 559.512 425.813 543.024 432.088 506.63C436.709 479.854 445.619 405.492 446.761 390.256" stroke="white" stroke-width="16.6201" stroke-linecap="round" stroke-linejoin="round"/>
  <path class="pg-outline-1" d="M239.805 51.0078C239.805 51.0078 24.444 -37.0135 34.456 163.153C36.5853 205.737 95.4947 485.372 165.753 400.908C191.428 370.02 214.648 345.795 214.648 345.795" stroke="white" stroke-width="16.6201" stroke-linecap="round" stroke-linejoin="round"/>
  <path class="pg-outline-1" d="M356.132 34.9425C348.677 37.2798 475.929 -11.5762 548.248 80.8318C573.793 113.477 544.191 246.857 473.377 351.937" stroke="white" stroke-width="16.6201" stroke-linecap="round" stroke-linejoin="round"/>
  <path class="pg-outline-1" d="M473.376 351.937C473.376 351.937 477.991 374.652 545.061 360.808C574.448 354.738 556.763 377.84 526.959 391.681C502.499 403.033 447.66 405.942 446.764 390.256C444.459 349.782 475.625 362.078 473.376 351.937ZM473.376 351.937C471.343 342.804 457.405 333.84 448.185 311.486C440.136 291.976 337.791 142.354 476.568 164.576C481.652 163.524 440.373 32.573 310.497 30.4437C180.651 28.3144 184.911 190.126 184.911 190.126" stroke="white" stroke-width="16.6201" stroke-linecap="round" stroke-linejoin="bevel"/>
  <path class="pg-outline-1" d="M260.472 365.779C242.369 386 247.693 389.551 211.508 397.001C174.896 404.548 196.407 417.979 210.445 421.488C227.469 425.748 266.855 431.779 293.467 394.516C301.571 383.17 293.419 365.068 282.287 360.453C276.908 358.225 269.716 355.433 260.472 365.779Z" stroke="white" stroke-width="16.6201" stroke-linecap="round" stroke-linejoin="round"/>
  <path class="pg-outline-1" d="M259.287 365.425C257.463 353.536 263.193 339.388 269.335 322.836C278.564 298.001 299.859 273.162 282.824 194.384C270.127 135.678 184.963 182.166 184.909 190.126C184.857 198.084 188.761 230.473 183.487 268.19C176.604 317.408 214.804 359.033 258.792 354.774" stroke="white" stroke-width="16.6201" stroke-linecap="round" stroke-linejoin="round"/>
  <path class="pg-eyes-stroke pg-eyes-fill" d="M239.023 188.933C238.639 191.652 244 198.907 250.991 199.876C257.969 200.849 263.943 195.18 264.321 192.464C264.7 189.745 259.345 186.751 252.352 185.777C245.369 184.803 239.393 186.221 239.024 188.933H239.023Z" fill="white" stroke="white" stroke-width="5.54"/>
  <path class="pg-eyes-stroke pg-eyes-fill" d="M451.588 183.39C451.967 186.109 446.612 193.364 439.62 194.333C432.636 195.306 426.663 189.637 426.28 186.921C425.911 184.202 431.267 181.208 438.252 180.234C445.237 179.261 451.209 180.678 451.588 183.392V183.39Z" fill="white" stroke="white" stroke-width="2.77"/>
  <path class="pg-outline-1" d="M476.568 164.576C477.719 185.901 471.975 200.426 471.251 223.128C470.179 256.125 486.983 293.893 461.663 331.708" stroke="white" stroke-width="16.6201" stroke-linecap="round" stroke-linejoin="round"/>
</svg>
