<svg width="100" height="100" viewBox="0 0 100 100" fill="none" xmlns="http://www.w3.org/2000/svg">
<g clip-path="url(#clip0_34_61)">
<path class="animation-target-0" d="M51.9195 0.0109485C51.0186 -0.0485248 50.1186 0.140653 49.3179 0.55783C48.5171 0.975007 47.8464 1.60415 47.3789 2.37657L9.98044 63.3703C9.49316 64.1647 9.23837 65.0797 9.245 66.0116C9.25163 66.9435 9.51941 67.8549 10.0179 68.6422L28.4304 97.6938C29.0145 98.6094 29.8812 99.3095 30.8992 99.6877C31.9172 100.066 33.0308 100.102 34.0711 99.7899L87.2054 83.8469C87.8879 83.6426 88.5185 83.2942 89.0547 82.8252C89.5909 82.3562 90.0201 81.7775 90.3134 81.1284C90.6067 80.4792 90.7572 79.7746 90.7547 79.0622C90.7523 78.3499 90.5969 77.6464 90.2992 76.9992L56.1429 2.89767C55.7715 2.07586 55.1813 1.37196 54.4369 0.862859C53.6925 0.353762 52.8224 0.0590589 51.9218 0.0109485H51.9195ZM53.3218 18.7219C53.7191 18.6744 54.121 18.7581 54.4663 18.9602C54.8115 19.1623 55.0813 19.4718 55.2343 19.8414L78.7968 74.3602C78.9018 74.6025 78.9542 74.8643 78.9505 75.1283C78.9469 75.3923 78.8873 75.6525 78.7756 75.8918C78.664 76.1311 78.5029 76.344 78.3029 76.5164C78.103 76.6889 77.8687 76.817 77.6156 76.8922L40.9 87.8484C40.5915 87.9401 40.2645 87.9504 39.9508 87.8784C39.6371 87.8065 39.3474 87.6546 39.1096 87.4377C38.8719 87.2207 38.6943 86.946 38.5941 86.6402C38.4938 86.3343 38.4743 86.0078 38.5375 85.6922L51.6859 20.2141C51.7596 19.8208 51.9596 19.4622 52.2555 19.1929C52.5515 18.9236 52.9273 18.7582 53.3258 18.7219H53.3218Z" fill="#2D3748"/>
</g>
<defs>
<clipPath id="clip0_34_61">
<rect width="100" height="100" fill="white"/>
</clipPath>
</defs>
</svg>
