<svg width="100" height="100" viewBox="0 0 100 100" fill="none" xmlns="http://www.w3.org/2000/svg">
<path class="animation-target-0" d="M50 59.5237C55.2599 59.5237 59.5238 55.2597 59.5238 49.9999C59.5238 44.74 55.2599 40.4761 50 40.4761C44.7402 40.4761 40.4762 44.74 40.4762 49.9999C40.4762 55.2597 44.7402 59.5237 50 59.5237Z" fill="#149ECA"/>
<path class="animation-target-0" fill-rule="evenodd" clip-rule="evenodd" d="M17.3053 37.0192C8.837 40.8299 4.7619 45.6034 4.7619 50.0002C4.7619 54.397 8.837 59.1705 17.3053 62.9812C25.5501 66.6914 37.1073 69.0478 50 69.0478C62.8927 69.0478 74.4499 66.6914 82.6947 62.9812C91.163 59.1705 95.2381 54.397 95.2381 50.0002C95.2381 45.6034 91.163 40.8299 82.6947 37.0192C74.4499 33.309 62.8927 30.9526 50 30.9526C37.1073 30.9526 25.5501 33.309 17.3053 37.0192ZM15.3512 32.6767C24.3411 28.6312 36.5934 26.1907 50 26.1907C63.4066 26.1907 75.6589 28.6312 84.6488 32.6767C93.4152 36.6215 100 42.5623 100 50.0002C100 57.4381 93.4152 63.3788 84.6488 67.3237C75.6589 71.3692 63.4066 73.8097 50 73.8097C36.5934 73.8097 24.3411 71.3692 15.3512 67.3237C6.58479 63.3788 0 57.4381 0 50.0002C0 42.5623 6.58479 36.6215 15.3512 32.6767Z" fill="#149ECA"/>
<path class="animation-target-0" fill-rule="evenodd" clip-rule="evenodd" d="M44.8945 15.1949C37.3602 9.76652 31.1887 8.62413 27.3809 10.8225C23.5732 13.021 21.4768 18.9368 22.4107 28.176C23.32 37.1713 27.0579 48.3583 33.5043 59.5237C39.9506 70.6891 47.7699 79.5197 55.1054 84.8048C62.6398 90.2333 68.8113 91.3756 72.619 89.1772C76.4268 86.9788 78.5232 81.0629 77.5892 71.8238C76.6799 62.8285 72.942 51.6415 66.4957 40.4761C60.0494 29.3107 52.2301 20.4801 44.8945 15.1949ZM47.6782 11.3314C55.6766 17.0941 63.9163 26.4847 70.6196 38.0951C77.3229 49.7056 81.3355 61.5367 82.327 71.3449C83.2938 80.9092 81.4414 89.5822 75 93.3012C68.5586 97.0201 60.1213 94.2879 52.3218 88.6684C44.3234 82.9057 36.0836 73.5151 29.3803 61.9046C22.677 50.2942 18.6644 38.4631 17.673 28.6549C16.7061 19.0905 18.5586 10.4175 25 6.69861C31.4414 2.97968 39.8786 5.71189 47.6782 11.3314Z" fill="#149ECA"/>
<path class="animation-target-0" fill-rule="evenodd" clip-rule="evenodd" d="M55.1054 15.1949C47.7699 20.4801 39.9506 29.3107 33.5043 40.4761C27.0579 51.6415 23.32 62.8285 22.4107 71.8238C21.4768 81.0629 23.5732 86.9788 27.3809 89.1772C31.1887 91.3756 37.3602 90.2333 44.8945 84.8048C52.2301 79.5197 60.0494 70.6891 66.4957 59.5237C72.942 48.3583 76.6799 37.1713 77.5892 28.176C78.5232 18.9368 76.4268 13.021 72.619 10.8225C68.8113 8.62413 62.6398 9.76652 55.1054 15.1949ZM52.3218 11.3314C60.1213 5.71189 68.5586 2.97968 75 6.69861C81.4414 10.4175 83.2938 19.0905 82.327 28.6549C81.3355 38.4631 77.3229 50.2942 70.6196 61.9046C63.9163 73.5151 55.6766 82.9057 47.6782 88.6684C39.8786 94.2879 31.4414 97.0201 25 93.3012C18.5586 89.5822 16.7061 80.9092 17.673 71.3449C18.6644 61.5367 22.677 49.7056 29.3803 38.0951C36.0836 26.4847 44.3234 17.0941 52.3218 11.3314Z" fill="#149ECA"/>
</svg>
