<svg width="100" height="100" viewBox="0 0 100 100" fill="none" xmlns="http://www.w3.org/2000/svg">
<g clip-path="url(#clip0_34_72)">
<path d="M61.7109 60.7558L59.793 64.0924C59.509 64.5862 59.1002 64.9963 58.6077 65.2815C58.1152 65.5666 57.5564 65.7167 56.9875 65.7167H42.293C41.7241 65.7167 41.1653 65.5666 40.6728 65.2815C40.1803 64.9963 39.7715 64.5862 39.4875 64.0924L37.5692 60.7558H61.7109ZM67.0809 51.4153L63.6988 57.2982H35.5817L32.1996 51.4153H67.0809ZM63.8231 42.2815L67.0863 47.9578H32.1942L35.4574 42.2815H63.8231ZM56.9871 33.647C57.556 33.6469 58.1149 33.797 58.6075 34.0821C59.1001 34.3673 59.509 34.7774 59.793 35.2713L61.8352 38.8239H37.4453L39.4879 35.2713C39.7719 34.7775 40.1807 34.3674 40.6732 34.0822C41.1657 33.7971 41.7245 33.6469 42.2934 33.647H56.9875H56.9871Z" fill="#00435B"/>
<path d="M20.9074 32.0985C19.2796 24.1918 18.93 18.1273 19.9824 13.724C20.6082 11.105 21.7519 8.96846 23.4918 7.42672C25.3285 5.79929 27.6503 5.00063 30.2597 5.00063C34.5636 5.00063 39.0886 6.96694 43.9238 10.7019C45.8964 12.2257 47.9433 14.0621 50.0691 16.2123C50.2386 15.9943 50.4296 15.7885 50.6429 15.5979C56.6531 10.2332 61.7132 6.89924 66.0414 5.6142C68.6148 4.84959 71.0308 4.77681 73.2308 5.51872C75.5535 6.30133 77.4039 7.92016 78.7097 10.187C80.8644 13.9282 81.4324 18.8442 80.6293 24.9145C80.3019 27.3887 79.7421 30.0836 78.9511 33.0039C79.2496 33.0399 79.5488 33.1065 79.8449 33.2047C87.4703 35.7364 92.8703 38.4583 96.1394 41.5696C98.0847 43.4205 99.3546 45.4811 99.814 47.7624C100.298 50.1701 99.8257 52.5848 98.5218 54.8501C96.3711 58.5862 92.4164 61.5324 86.7828 63.8661C84.5211 64.8033 81.9613 65.652 79.1015 66.4155C79.232 66.7105 79.3335 67.0239 79.4011 67.3526C81.0289 75.2593 81.3781 81.3238 80.3261 85.7271C79.7003 88.3461 78.5562 90.4826 76.8164 92.0244C74.98 93.6518 72.6578 94.4505 70.0488 94.4505C65.7445 94.4505 61.2199 92.4842 56.3847 88.7492C54.391 87.209 52.3214 85.3499 50.1711 83.1699C49.9447 83.5243 49.6708 83.8458 49.357 84.1255C43.3468 89.4911 38.2867 92.8242 33.9585 94.1096C31.3851 94.8742 28.9691 94.947 26.7691 94.2051C24.4464 93.4225 22.596 91.8037 21.2902 89.5369C19.1355 85.7956 18.5675 80.8796 19.3707 74.8093C19.7101 72.2459 20.2988 69.4449 21.1355 66.4022C20.802 66.3682 20.4732 66.2978 20.155 66.192C12.5296 63.6603 7.12965 60.9384 3.8605 57.8271C1.91519 55.9762 0.64527 53.9156 0.185895 51.6343C-0.29848 49.2266 0.174176 46.8115 1.47808 44.5462C3.62886 40.8105 7.58355 37.8639 13.2171 35.5306C15.5464 34.5652 18.1914 33.6942 21.1546 32.9132C21.0474 32.6498 20.9646 32.3771 20.9074 32.0985Z" fill="#002B3B"/>
<path d="M74.0809 68.1302C74.4448 68.0656 74.8196 68.1437 75.1276 68.3484C75.4356 68.5532 75.6532 68.8687 75.7352 69.2298L75.7442 69.2736L75.825 69.6942C78.4461 83.4979 76.5996 90.4001 70.286 90.4001C64.109 90.4001 56.2453 84.5106 46.6953 72.7315C46.5257 72.5222 46.418 72.2694 46.3846 72.0018C46.3512 71.7342 46.3934 71.4626 46.5064 71.2179C46.6194 70.9731 46.7987 70.765 47.0238 70.6172C47.249 70.4694 47.511 70.3878 47.7801 70.3818H47.8246L48.3278 70.3853C52.3465 70.4072 56.2531 70.2667 60.0481 69.9642C64.5274 69.607 69.2051 68.9958 74.0809 68.1302ZM30.7211 57.6957L30.7453 57.7368L30.9977 58.1778C33.0199 61.6995 35.1266 65.042 37.318 68.2057C39.8992 71.9309 42.8016 75.7023 46.025 79.5199C46.2643 79.8032 46.3853 80.168 46.3628 80.5384C46.3403 80.9089 46.1761 81.2563 45.9043 81.5085L45.868 81.541L45.5438 81.8208C34.877 90.9761 27.9442 92.8039 24.7453 87.3037C21.6137 81.9205 22.7492 72.1317 28.1512 57.9375C28.2468 57.686 28.4108 57.4664 28.6247 57.3035C28.8385 57.1406 29.0936 57.0409 29.361 57.0157C29.6285 56.9905 29.8977 57.0409 30.138 57.1611C30.3784 57.2812 30.5804 57.4664 30.7211 57.6957ZM79.4934 37.3267L79.5371 37.3412L79.9387 37.4797C93.1047 42.0678 98.1067 47.1097 94.9449 52.6056C91.8528 57.9805 82.8629 61.8944 67.9758 64.3463C67.706 64.3908 67.4291 64.3573 67.1776 64.2498C66.9261 64.1424 66.7104 63.9653 66.5557 63.7394C66.401 63.5135 66.3138 63.2481 66.3043 62.9744C66.2948 62.7006 66.3634 62.4298 66.502 62.1937C68.634 58.5601 70.5547 54.9452 72.2633 51.3479C74.2008 47.2686 76.0192 42.8895 77.7184 38.2118C77.8418 37.8718 78.0884 37.5908 78.4091 37.4244C78.7298 37.258 79.1012 37.2186 79.4496 37.3138L79.4934 37.3267ZM32.9867 35.0168C33.1497 35.1127 33.2922 35.2398 33.4061 35.3908C33.52 35.5419 33.6031 35.7139 33.6506 35.8971C33.6981 36.0803 33.7091 36.2711 33.683 36.4586C33.6569 36.6461 33.5942 36.8266 33.4985 36.9898C31.3656 40.6231 29.4453 44.2383 27.7367 47.8356C25.7992 51.9149 23.9809 56.2936 22.2817 60.9717C22.1555 61.319 21.901 61.6046 21.5706 61.7693C21.2403 61.934 20.8594 61.9654 20.5067 61.8568L20.4629 61.8423L20.0613 61.7034C6.89533 57.1158 1.89338 52.0734 5.0551 46.5779C8.14728 41.2026 17.1371 37.2891 32.0242 34.8372C32.3563 34.7824 32.6969 34.8458 32.9867 35.0168ZM75.2547 12.4198C78.3863 17.8034 77.2508 27.5922 71.8488 41.7864C71.7532 42.0379 71.5892 42.2575 71.3754 42.4204C71.1615 42.5833 70.9065 42.683 70.639 42.7082C70.3715 42.7334 70.1024 42.683 69.862 42.5628C69.6216 42.4427 69.4196 42.2575 69.2789 42.0282L69.2547 41.9871L69.0024 41.5461C66.9801 38.0244 64.8735 34.6819 62.6821 31.5182C60.1008 27.793 57.1985 24.0216 53.975 20.204C53.7358 19.9207 53.6148 19.5559 53.6373 19.1855C53.6597 18.8151 53.824 18.4676 54.0957 18.2154L54.132 18.1829L54.4563 17.9031C65.1231 8.7478 72.0559 6.92002 75.2547 12.4198ZM30.2539 9.1438C36.4313 9.1438 44.2949 15.0329 53.8445 26.812C54.0142 27.0213 54.1219 27.2742 54.1552 27.5417C54.1886 27.8093 54.1464 28.0809 54.0335 28.3256C53.9205 28.5704 53.7412 28.7785 53.5161 28.9263C53.2909 29.0741 53.0289 29.1557 52.7598 29.1618H52.7153L52.2121 29.1586C48.1938 29.1367 44.2867 29.2772 40.4922 29.5797C36.0125 29.9369 31.3348 30.5481 26.459 31.4137C26.0951 31.4782 25.7204 31.4 25.4125 31.1953C25.1046 30.9906 24.8871 30.6751 24.8051 30.3141L24.7957 30.2699L24.7149 29.8497C22.0938 16.0456 23.9399 9.1438 30.2539 9.1438Z" fill="#FF4154"/>
<path d="M43.4746 33.8274H55.809C56.6952 33.8273 57.5657 34.0616 58.3325 34.5065C59.0994 34.9514 59.7355 35.5911 60.1765 36.3611L66.3699 47.1713C66.8077 47.9355 67.0381 48.8012 67.0381 49.6823C67.0381 50.5634 66.8077 51.4291 66.3699 52.1933L60.1765 63.0034C59.7354 63.7734 59.0993 64.4131 58.3325 64.8579C57.5656 65.3028 56.6951 65.5371 55.809 65.5371H43.4746C41.6707 65.5371 40.0047 64.5706 39.1066 63.0034L32.914 52.1933C32.4762 51.4291 32.2459 50.5634 32.2459 49.6823C32.2459 48.8012 32.4762 47.9355 32.914 47.1713L39.107 36.3611C39.5481 35.5911 40.1843 34.9514 40.9512 34.5065C41.7182 34.0616 42.5883 33.8274 43.4746 33.8274ZM53.9289 37.0901C55.7336 37.0901 57.4008 38.0578 58.298 39.6261L62.6168 47.1736C63.0537 47.9372 63.2836 48.8021 63.2836 49.6823C63.2836 50.5624 63.0537 51.4273 62.6168 52.1909L58.298 59.7384C57.857 60.5089 57.2208 61.1492 56.4536 61.5944C55.6864 62.0396 54.8155 62.2741 53.9289 62.274H45.3547C43.55 62.274 41.8828 61.3067 40.9855 59.7384L36.6668 52.1909C36.2298 51.4273 36 50.5624 36 49.6823C36 48.8021 36.2298 47.9372 36.6668 47.1736L40.9855 39.6261C41.4265 38.8557 42.0626 38.2155 42.8298 37.7702C43.5969 37.325 44.4677 37.0905 45.3543 37.0905L53.9289 37.0901ZM51.9027 40.6588H47.3808C46.495 40.6588 45.6248 40.8928 44.8581 41.3373C44.0914 41.7818 43.4553 42.4211 43.014 43.1905L40.732 47.1689C40.2933 47.9337 40.0625 48.8003 40.0625 49.6823C40.0625 50.5643 40.2933 51.4309 40.732 52.1956L43.014 56.1744C43.4553 56.9439 44.0914 57.5831 44.8581 58.0276C45.6248 58.4721 46.495 58.7062 47.3808 58.7061H51.9027C53.7058 58.7061 55.3715 57.7404 56.2695 56.1744L58.5515 52.1956C58.9902 51.4309 59.2211 50.5643 59.2211 49.6823C59.2211 48.8003 58.9902 47.9337 58.5515 47.1689L56.2695 43.1901C55.8282 42.4207 55.1921 41.7814 54.4254 41.3369C53.6587 40.8924 52.7886 40.6588 51.9027 40.6588ZM49.9519 44.0745C51.7535 44.0745 53.4179 45.0387 54.3164 46.6023L54.6402 47.1658C55.08 47.9313 55.3115 48.799 55.3115 49.6823C55.3115 50.5655 55.08 51.4332 54.6402 52.1987L54.3164 52.7622C53.8748 53.5306 53.2389 54.1688 52.4727 54.6126C51.7064 55.0564 50.837 55.2901 49.9519 55.29H49.3316C48.4465 55.2901 47.5771 55.0564 46.8109 54.6126C46.0447 54.1688 45.4087 53.5306 44.9672 52.7622L44.6433 52.1987C44.2035 51.4332 43.972 50.5655 43.972 49.6823C43.972 48.799 44.2035 47.9313 44.6433 47.1658L44.9672 46.6023C45.4087 45.8339 46.0447 45.1957 46.8109 44.7519C47.5771 44.3081 48.4465 44.0745 49.3316 44.0745H49.9519ZM49.6426 47.4393C49.2492 47.4391 48.8627 47.5427 48.5219 47.7395C48.1811 47.9364 47.898 48.2196 47.7011 48.5608C47.5045 48.9017 47.401 49.2885 47.401 49.6823C47.401 50.076 47.5045 50.4628 47.7011 50.8037C47.8979 51.1449 48.1808 51.4282 48.5215 51.6252C48.8622 51.8222 49.2486 51.9259 49.642 51.9259C50.0353 51.9259 50.4217 51.8222 50.7624 51.6252C51.1031 51.4282 51.386 51.1449 51.5828 50.8037C51.7794 50.4628 51.8829 50.076 51.8829 49.6823C51.8829 49.2885 51.7794 48.9017 51.5828 48.5608C51.3861 48.2197 51.1032 47.9366 50.7626 47.7397C50.422 47.5429 50.0358 47.4393 49.6426 47.4393ZM31.475 49.6823H35.5062Z" fill="#FFD94C"/>
</g>
<defs>
<clipPath id="clip0_34_72">
<rect width="100" height="100" fill="white"/>
</clipPath>
</defs>
</svg>
