<svg width="100" height="100" viewBox="0 0 100 100" fill="none" xmlns="http://www.w3.org/2000/svg">
<path d="M88.599 46.1244C90.467 47.9924 90.467 51.0212 88.599 52.8892C86.7309 54.7573 83.7022 54.7573 81.8342 52.8892L51.9006 22.9556C51.9006 22.9556 50.9083 21.9224 50.0401 21.9058C49.1456 21.8886 48.0994 22.9556 48.0994 22.9556L18.1659 52.8892C16.2978 54.7573 13.2691 54.7573 11.401 52.8892C9.53299 51.0212 9.53299 47.9925 11.401 46.1244L42.5521 14.9733C45.7309 11.6977 54.0294 11.6977 57.4479 14.9733L67.2892 24.8146V20.1161C67.2892 17.4767 69.4289 15.337 72.0683 15.337C74.7077 15.337 76.8474 17.4767 76.8474 20.1161V34.3728L88.599 46.1244Z" fill="#34A5DD"/>
<path d="M48.0995 31.7749L21.6236 58.2507C21.2486 58.6257 21.038 59.1343 21.038 59.6647V79.245C21.038 83.7949 24.7264 87.4834 29.2764 87.4834H38.6076L34.0755 84.134L41.0642 76.9954C41.0642 76.9954 48.8127 84.184 53.5618 79.5249C54.8919 77.6852 54.4417 75.4557 48.4528 74.2359C48.4528 74.2359 33.3356 71.9863 36.3251 60.3285C36.3251 60.3285 37.4749 50.5604 52.2221 50.5604C52.2221 50.5604 60.4305 50.5604 66.1895 55.7494C66.3494 55.5955 59.5907 62.6581 59.5907 62.6581C56.6912 58.5189 47.2861 58.1789 47.363 61.8282C47.418 64.4351 50.2757 65.061 53.7265 65.8167C59.0636 66.9856 65.8195 68.4652 65.8195 78.0652C65.109 82.3445 64.7511 84.127 59.9493 87.4834H70.7286C75.2786 87.4834 78.967 83.7949 78.967 79.245V59.6696C78.967 59.1393 78.7564 58.6306 78.3814 58.2556L51.9006 31.7749C51.9006 31.7749 50.9083 30.7417 50.0402 30.7251C49.1457 30.7079 48.0995 31.7749 48.0995 31.7749Z" fill="#34A5DD"/>
</svg>
