<svg width="100" height="100" viewBox="0 0 100 100" fill="none" xmlns="http://www.w3.org/2000/svg">
<path d="M17.3745 80.1587H24.5874V83.8154H17.3749V92.1131C17.3603 92.7085 17.4421 93.3024 17.617 93.8718C17.7495 94.2944 17.9849 94.6774 18.3021 94.9866C18.6079 95.2744 18.9797 95.4828 19.385 95.5934C19.7902 95.7016 20.2066 95.7607 20.6253 95.7692L20.8047 95.7698C21.1821 95.7698 21.5719 95.7698 21.9739 95.7167L22.2124 95.6872L22.6747 95.6348C22.826 95.617 22.975 95.5977 23.123 95.5731L23.3395 95.5387L23.7464 95.4784C23.878 95.4587 24.0056 95.4377 24.1319 95.4131L24.4332 95.3528L24.5733 95.3233L24.8325 95.2656L24.9526 95.237L25.4369 98.6436C25.0471 98.8633 24.6342 99.0392 24.2058 99.1682C23.7206 99.3217 23.2259 99.4436 22.7249 99.5331C22.1999 99.6315 21.6539 99.7056 21.0837 99.7587C20.5286 99.8108 19.9714 99.8368 19.4138 99.8367C18.441 99.8508 17.472 99.7125 16.5421 99.4269C15.7133 99.1689 14.9571 98.7194 14.3348 98.1148C13.6936 97.4876 13.2099 96.7178 12.9232 95.8682C12.5666 94.8124 12.3973 93.7025 12.4228 92.5885V83.8154H8V80.1587H12.4103V75.4318H17.3749L17.3745 80.1587ZM35.0539 89.7557V99.4636H30.0356V73.4846H38.7703C40.0911 73.4682 41.4075 73.6393 42.6802 73.9928C43.7667 74.2926 44.7851 74.7994 45.6793 75.4852C46.5017 76.1401 47.1535 76.984 47.5791 77.9449C48.0461 79.013 48.2756 80.1697 48.2517 81.3351C48.2628 82.1817 48.1509 83.0254 47.9197 83.84C47.5232 85.2562 46.6692 86.5016 45.4906 87.3823C44.8909 87.8359 44.2412 88.2196 43.5543 88.5259L49.1423 99.2462V99.48H43.7469L38.8569 89.7557H35.0539ZM35.0578 85.681H38.7706C39.4685 85.6946 40.1632 85.5836 40.822 85.3531C41.3733 85.1576 41.868 84.8294 42.2625 84.3977C42.5696 84.0555 42.8052 83.6554 42.9555 83.221C43.1025 82.7757 43.1825 82.3111 43.1927 81.843L43.1934 81.6672C43.2056 81.0436 43.0999 80.4234 42.8817 79.839C42.6856 79.33 42.3639 78.8787 41.9465 78.5272C41.5446 78.2031 41.0831 77.9608 40.5881 77.8138C40.0578 77.6594 39.5095 77.5757 38.9573 77.5646L35.0578 77.5636V85.681ZM57.3195 99.4636H52.31V73.4846H61.2005C62.5065 73.4661 63.8058 73.6743 65.0406 74.0997C66.1191 74.4715 67.1144 75.0509 67.9701 75.8049C68.7663 76.5439 69.3957 77.444 69.8165 78.4452C70.2339 79.457 70.4553 80.5388 70.4688 81.6331V81.8518C70.4803 82.9624 70.2581 84.063 69.8165 85.0823C69.3917 86.055 68.7619 86.9247 67.9701 87.6321C67.1114 88.3866 66.1116 88.9635 65.0285 89.3295C63.7926 89.7501 62.4935 89.9552 61.1881 89.9361H57.3152L57.3195 99.4636ZM57.3195 85.8695H61.1923C61.8269 85.8823 62.458 85.7723 63.0508 85.5456C63.5478 85.3507 63.998 85.0532 64.3719 84.6725C64.7152 84.3051 64.9792 83.8711 65.1476 83.3974C65.3215 82.9134 65.4101 82.403 65.4101 81.8889C65.4139 81.3141 65.3252 80.7424 65.1476 80.1957C64.9852 79.6887 64.7213 79.2199 64.3719 78.818C64.0029 78.4184 63.5524 78.1026 63.0508 77.8918C62.4609 77.6533 61.8286 77.5375 61.1923 77.5515H57.3195V85.8695ZM91.1301 94.8597C90.6707 95.8727 90.0121 96.7831 89.1935 97.5367C88.3518 98.2908 87.3687 98.8705 86.3011 99.2423C85.1855 99.6241 84.0159 99.8249 82.8368 99.837L82.5841 99.8367C81.5791 99.8487 80.5778 99.7105 79.6136 99.4269C78.732 99.1639 77.9002 98.7565 77.152 98.2213C76.4751 97.724 75.8763 97.1285 75.3755 96.4544C74.8483 95.7484 74.4076 94.9818 74.0627 94.1711C73.7032 93.2858 73.4378 92.3651 73.271 91.4243C73.0814 90.3759 72.9879 89.3125 72.9917 88.2472V84.7502C72.9895 83.7487 73.0733 82.7488 73.2421 81.7616C73.381 80.9606 73.5952 80.1745 73.8819 79.4138L73.9928 79.1298C74.3556 78.1783 74.862 77.2878 75.4947 76.4895C76.0938 75.7345 76.8033 75.074 77.5992 74.5302C78.3144 74.0689 79.0943 73.7165 79.9132 73.4846C80.712 73.2572 81.5371 73.1348 82.3676 73.1207L82.6169 73.1197C83.9132 73.0974 85.2032 73.3027 86.4284 73.7262C87.489 74.0903 88.4584 74.6788 89.2705 75.4514C90.0827 76.2241 90.7184 77.1627 91.1344 78.2033C91.6064 79.371 91.8956 80.6043 91.9918 81.86H86.9945C86.9649 81.1649 86.8494 80.4764 86.6499 79.8102C86.489 79.2726 86.218 78.7743 85.8542 78.3469C85.4851 77.9582 85.0296 77.6618 84.5247 77.4816C83.9125 77.2719 83.2681 77.1721 82.6212 77.1866C82.2509 77.1853 81.8818 77.228 81.5217 77.3138C81.1935 77.3934 80.8789 77.519 80.5862 77.6866C80.0842 77.9935 79.6624 78.4151 79.3554 78.9167C78.9962 79.4914 78.7199 80.1138 78.5347 80.7656C78.3728 81.3592 78.2603 81.9652 78.1984 82.5774C78.1235 83.2855 78.0879 83.9972 78.0918 84.7092V88.239C78.0836 89.1669 78.1397 90.0943 78.2598 91.0144C78.3516 91.7429 78.5278 92.4583 78.7848 93.1462C78.9393 93.5379 79.1405 93.9095 79.3839 94.2531C79.6028 94.5679 79.8718 94.8446 80.18 95.0728C80.5043 95.3124 80.87 95.4902 81.2588 95.5974C81.6917 95.717 82.1393 95.7751 82.5884 95.7698C83.1871 95.7769 83.7834 95.6925 84.3567 95.5197C84.8589 95.3651 85.3182 95.0957 85.698 94.7328C86.0881 94.3456 86.3868 93.8763 86.5722 93.359C86.8093 92.7112 86.9476 92.0315 86.9823 91.3426H92C91.9276 92.5582 91.6329 93.7502 91.1305 94.8597H91.1301ZM69.1559 30.2957L81.7842 37.581V52.1587L69.1559 59.4439L63.5499 56.2043L49.918 64.0679L36.3677 56.2492L30.8401 59.4436L18.2119 52.1466V37.5803L30.8401 30.2954L43.4683 37.5807V52.1462L39.648 54.3538L49.918 60.2797L60.2697 54.3085L56.5274 52.1462V37.5803L69.1559 30.2957ZM59.8096 41.377V50.2689L67.5147 54.7131V45.8213L59.8096 41.377ZM78.5019 41.3649L70.7969 45.8089V54.7131L78.5019 50.2567V41.3649ZM21.4941 41.3649V50.2567L29.1988 54.7007V45.8089L21.4941 41.3649ZM40.1861 41.3649L32.4814 45.8085V54.7003L40.1864 50.2564V41.3646L40.1861 41.3649ZM69.1559 34.0921L61.4509 38.5361L69.1559 42.9843L76.8606 38.5361L69.1559 34.0921ZM30.8401 34.08L23.1351 38.5361L30.8401 42.9721L38.5452 38.5361L30.8401 34.08ZM37.1214 11.4833V15.2669L25.4369 22.0111V33.4118L22.1547 35.3059V20.1164L37.1211 11.483L37.1214 11.4833ZM49.7496 0L62.3864 7.28492V11.2911L77.6813 20.1164V35.2111L74.399 33.317V22.0105L62.3864 15.079V21.8548L49.7578 29.1397L37.1296 21.8548V7.28492L49.7496 0ZM40.4122 11.0689V19.9607L48.109 24.4046V15.5167L40.4122 11.0689ZM59.0963 11.0689L51.3995 15.5167V24.4007L59.0956 19.9607V11.0689H59.0963ZM49.75 3.78787L42.0528 8.2318L49.7496 12.6757L57.4547 8.2318L49.75 3.78787Z" fill="#398CCB"/>
</svg>
