<svg width="100" height="100" viewBox="0 0 100 100" fill="none" xmlns="http://www.w3.org/2000/svg">
  <path class="animation-target-0" d="M3.75 0H96.25C98.3212 0 100 1.67892 100 3.75V96.25C100 98.3212 98.3212 100 96.25 100H3.75C1.67892 100 0 98.3212 0 96.25V3.75C0 1.67892 1.67892 0 3.75 0ZM55.5885 53.2V44.9985H19.9992V53.2H32.7054V89.7177H42.82V53.2H55.5885ZM59.6212 88.7535C61.2523 89.585 63.1815 90.2088 65.4088 90.6246C67.6358 91.0404 69.9831 91.2485 72.4508 91.2485C74.8558 91.2485 77.1404 91.0196 79.3046 90.5623C81.4692 90.105 83.3669 89.3512 84.9981 88.3012C86.6292 87.2512 87.9204 85.8792 88.8719 84.1846C89.8235 82.49 90.2992 80.3954 90.2992 77.9004C90.2992 76.0915 90.0273 74.5065 89.4838 73.1446C88.94 71.7827 88.1558 70.5715 87.1312 69.5112C86.1065 68.4508 84.8777 67.4996 83.4454 66.6577C82.0127 65.8158 80.3973 65.0204 78.5988 64.2719C77.2815 63.7312 76.1 63.2062 75.0542 62.6969C74.0088 62.1877 73.12 61.6677 72.3881 61.1377C71.6562 60.6073 71.0915 60.0462 70.6942 59.4535C70.2969 58.8612 70.0981 58.1904 70.0981 57.4419C70.0981 56.7558 70.2762 56.1373 70.6315 55.5865C70.9869 55.0354 71.4889 54.5623 72.1373 54.1673C72.7854 53.7723 73.58 53.4658 74.5212 53.2473C75.4623 53.0292 76.5077 52.92 77.6581 52.92C78.4942 52.92 79.3781 52.9823 80.3085 53.1069C81.2392 53.2319 82.175 53.4242 83.1158 53.6838C84.0569 53.9438 84.9719 54.2712 85.8608 54.6665C86.7496 55.0615 87.5704 55.5188 88.3231 56.0385V46.7138C86.7965 46.1315 85.1288 45.7 83.32 45.4196C81.5108 45.1388 79.4354 44.9985 77.0935 44.9985C74.7092 44.9985 72.4508 45.2531 70.3177 45.7627C68.1846 46.2719 66.3081 47.0673 64.6873 48.1485C63.0665 49.2296 61.7858 50.6069 60.8446 52.2804C59.9035 53.9542 59.4331 55.9554 59.4331 58.2838C59.4331 61.2573 60.2958 63.7938 62.0212 65.8935C63.7462 67.9935 66.3654 69.7712 69.8788 71.2265C71.2588 71.7881 72.545 72.3388 73.7369 72.8796C74.9288 73.42 75.9588 73.9815 76.8265 74.5635C77.6946 75.1458 78.3792 75.7796 78.8812 76.4658C79.3831 77.1519 79.6342 77.9315 79.6342 78.805C79.6342 79.4496 79.4773 80.0473 79.1635 80.5981C78.85 81.1492 78.3742 81.6273 77.7365 82.0327C77.0985 82.4381 76.3038 82.7554 75.3523 82.9838C74.4008 83.2127 73.2873 83.3269 72.0115 83.3269C69.8369 83.3269 67.6831 82.9477 65.55 82.1888C63.4169 81.43 61.4408 80.2915 59.6212 78.7738V88.7535Z" fill="#3178C6"/>A
</svg>
