<svg width="100" height="100" viewBox="0 0 100 100" fill="none" xmlns="http://www.w3.org/2000/svg">
<g clip-path="url(#clip0_4_50)">
<circle cx="50" cy="50" r="50" fill="#6814BD"/>
<path d="M17.96 72V28.2H32.06C36.5 28.2 40.04 29.22 42.68 31.26C45.32 33.26 46.64 35.98 46.64 39.42C46.64 41.34 46.18 43.02 45.26 44.46C44.38 45.9 43.18 47.02 41.66 47.82C40.18 48.62 38.56 49.02 36.8 49.02V49.2C38.76 49.16 40.54 49.52 42.14 50.28C43.78 51.04 45.1 52.18 46.1 53.7C47.1 55.22 47.6 57.1 47.6 59.34C47.6 61.9 46.98 64.14 45.74 66.06C44.54 67.94 42.82 69.4 40.58 70.44C38.34 71.48 35.68 72 32.6 72H17.96ZM26.66 64.74H32.24C34.2 64.74 35.74 64.22 36.86 63.18C37.98 62.14 38.54 60.7 38.54 58.86C38.54 57.02 37.98 55.58 36.86 54.54C35.74 53.46 34.2 52.92 32.24 52.92H26.66V64.74ZM26.66 45.84H31.94C33.7 45.84 35.08 45.38 36.08 44.46C37.08 43.5 37.58 42.22 37.58 40.62C37.58 38.98 37.08 37.72 36.08 36.84C35.08 35.92 33.7 35.46 31.94 35.46H26.66V45.84ZM55.6766 72V28.2H64.6766V63.6H82.3766V72H55.6766Z" fill="#EEEEEE"/>
</g>
<defs>
<clipPath id="clip0_4_50">
<rect width="100" height="100" fill="white"/>
</clipPath>
</defs>
</svg>
